<svg width="180" height="28" viewBox="0 0 180 28" fill="none" xmlns="http://www.w3.org/2000/svg">
<path fill-rule="evenodd" clip-rule="evenodd" d="M15.6831 10.4331C15.9271 10.189 16.3229 10.189 16.5669 10.4331L19.6919 13.5581C19.936 13.8021 19.936 14.1979 19.6919 14.4419L16.5669 17.5669C16.3229 17.811 15.9271 17.811 15.6831 17.5669C15.439 17.3229 15.439 16.9271 15.6831 16.6831L18.3661 14L15.6831 11.3169C15.439 11.0729 15.439 10.6771 15.6831 10.4331Z" fill="black" fill-opacity="0.2"/>
<path d="M30.6249 15.375C30.5397 14.9217 30.4978 14.4613 30.5 14C30.499 12.4489 30.9794 10.9357 31.875 9.66933C32.7706 8.40285 34.0372 7.44566 35.5 6.92969V12.5547L30.6249 15.375Z" fill="black" fill-opacity="0.1"/>
<path d="M38.625 14V6.5C38.625 6.15482 38.3452 5.875 38 5.875C37.6548 5.875 37.375 6.15482 37.375 6.5V14C37.375 14.3452 37.6548 14.625 38 14.625C38.3452 14.625 38.625 14.3452 38.625 14Z" fill="#1C1C1C"/>
<path d="M31.1957 17.2085L31.1952 17.2088C31.0517 17.2917 30.9469 17.4282 30.9041 17.5884C30.89 17.6411 30.8828 17.6954 30.8828 17.75C30.8828 17.7566 30.8829 17.7632 30.8831 17.7698C30.8864 17.8728 30.9151 17.9734 30.9666 18.0626C31.0783 18.2559 31.2846 18.375 31.5078 18.375C31.5175 18.375 31.5272 18.3748 31.5369 18.3743C31.6367 18.3697 31.7339 18.3412 31.8204 18.2912L31.8209 18.2909L44.8048 10.7912C44.9981 10.6795 45.1172 10.4732 45.1172 10.25C45.1172 10.2403 45.117 10.2306 45.1165 10.2209C45.1119 10.1211 45.0834 10.0239 45.0334 9.93739C44.9505 9.79386 44.814 9.68913 44.6538 9.64626C44.6011 9.63215 44.5468 9.625 44.4922 9.625C44.4856 9.625 44.479 9.6251 44.4724 9.62531C44.3694 9.62858 44.2688 9.65726 44.1796 9.7088L31.1957 17.2085Z" fill="#1C1C1C"/>
<path fill-rule="evenodd" clip-rule="evenodd" d="M35.8129 13.0957L30.9379 15.916C30.7944 15.999 30.6239 16.0216 30.4637 15.9788C30.3036 15.9361 30.167 15.8315 30.0839 15.688C30.0485 15.6268 30.0238 15.56 30.0107 15.4905C30.0107 15.4905 29.8715 14.7503 29.8749 13.9971C29.8749 13.9971 29.8733 11.4174 31.3647 9.30843C31.3647 9.30843 32.8561 7.19949 35.292 6.34028C35.4484 6.28514 35.6202 6.29436 35.7697 6.36591C35.9192 6.43745 36.0342 6.56547 36.0893 6.72179C36.1129 6.78857 36.1249 6.85887 36.1249 6.92969V12.5547C36.1249 12.7778 36.006 12.984 35.8129 13.0957ZM31.1328 14.3591L34.8749 12.1942V7.87232C34.8749 7.87232 33.3812 8.6219 32.3853 10.0302C32.3853 10.0302 31.1235 11.8144 31.1249 14.0029C31.1249 14.0029 31.1241 14.1814 31.1328 14.3591Z" fill="#1C1C1C"/>
<path d="M34.5993 19.9755C33.0011 19.0662 32.0702 17.4805 32.0702 17.4805C31.9863 17.3375 31.8491 17.2338 31.6886 17.192C31.6372 17.1786 31.5844 17.1719 31.5313 17.1719C31.5232 17.1719 31.5151 17.172 31.507 17.1723C31.4041 17.1763 31.3037 17.2057 31.2148 17.2579C31.0237 17.3701 30.9062 17.5752 30.9062 17.7969L30.9063 17.7987C30.9066 17.9093 30.9363 18.0179 30.9923 18.1133C32.0924 19.9873 33.9812 21.062 33.9812 21.062C35.8699 22.1366 38.043 22.1249 38.043 22.1249C40.2161 22.1132 42.0931 21.0182 42.0931 21.0182C43.9702 19.9232 45.05 18.0374 45.05 18.0374C46.1299 16.1516 46.1241 13.9785 46.1241 13.9785C46.1184 11.8055 45.0286 9.92538 45.0286 9.92538C43.9388 8.04531 42.056 6.96028 42.056 6.96028C40.1732 5.87525 38.0001 5.875 38.0001 5.875C37.9619 5.875 37.9238 5.87849 37.8863 5.88542C37.5901 5.94022 37.375 6.19861 37.375 6.49993C37.375 6.50996 37.3752 6.51998 37.3757 6.52995C37.3832 6.68515 37.4482 6.83201 37.558 6.94189C37.6752 7.05911 37.8342 7.12498 37.9999 7.125H38.0002C39.8388 7.12528 41.4319 8.04331 41.4319 8.04331C43.025 8.96141 43.9471 10.5522 43.9471 10.5522C44.8693 12.1431 44.8741 13.9818 44.8741 13.9818C44.879 15.8206 43.9653 17.4163 43.9653 17.4163C43.0516 19.012 41.4633 19.9385 41.4633 19.9385C39.875 20.865 38.0362 20.8749 38.0362 20.8749C36.1975 20.8848 34.5993 19.9755 34.5993 19.9755Z" fill="#1C1C1C"/>
<path d="M56.375 19H53.233V8.81818H56.5142C57.5019 8.81818 58.3471 9.02202 59.0497 9.42969C59.7524 9.83404 60.291 10.4157 60.6655 11.1747C61.04 11.9304 61.2273 12.8352 61.2273 13.8892C61.2273 14.9498 61.0384 15.8629 60.6605 16.6286C60.2827 17.3909 59.7325 17.9775 59.0099 18.3885C58.2874 18.7962 57.4091 19 56.375 19ZM54.4659 17.9062H56.2955C57.1373 17.9062 57.835 17.7438 58.3885 17.419C58.942 17.0942 59.3546 16.6319 59.6264 16.032C59.8982 15.4321 60.0341 14.7178 60.0341 13.8892C60.0341 13.0672 59.8999 12.3596 59.6314 11.7663C59.3629 11.1697 58.9619 10.7124 58.4283 10.3942C57.8946 10.0727 57.2301 9.91193 56.4347 9.91193H54.4659V17.9062ZM66.3381 19.1591C65.6023 19.1591 64.9676 18.9967 64.4339 18.6719C63.9036 18.3438 63.4943 17.8864 63.206 17.2997C62.9209 16.7098 62.7784 16.0237 62.7784 15.2415C62.7784 14.4593 62.9209 13.7699 63.206 13.1733C63.4943 12.5734 63.8954 12.1061 64.4091 11.7713C64.9261 11.4332 65.5294 11.2642 66.2188 11.2642C66.6165 11.2642 67.0092 11.3305 67.397 11.4631C67.7848 11.5956 68.1378 11.8111 68.456 12.1094C68.7741 12.4044 69.0277 12.7955 69.2166 13.2827C69.4055 13.7699 69.5 14.3698 69.5 15.0824V15.5795H63.6136V14.5653H68.3068C68.3068 14.1345 68.2206 13.75 68.0483 13.4119C67.8793 13.0739 67.6373 12.8071 67.3224 12.6115C67.0109 12.416 66.643 12.3182 66.2188 12.3182C65.7514 12.3182 65.3471 12.4342 65.0057 12.6662C64.6676 12.8949 64.4074 13.1932 64.2251 13.5611C64.0429 13.929 63.9517 14.3234 63.9517 14.7443V15.4205C63.9517 15.9972 64.0511 16.486 64.25 16.8871C64.4522 17.2848 64.7322 17.5881 65.0902 17.7969C65.4482 18.0024 65.8641 18.1051 66.3381 18.1051C66.6463 18.1051 66.9247 18.062 67.1733 17.9759C67.4252 17.8864 67.6423 17.7538 67.8246 17.5781C68.0069 17.3991 68.1477 17.1771 68.2472 16.9119L69.3807 17.2301C69.2614 17.6146 69.0608 17.9527 68.7791 18.2443C68.4974 18.5327 68.1494 18.758 67.7351 18.9205C67.3208 19.0795 66.8551 19.1591 66.3381 19.1591ZM74.6854 11.3636V12.358H70.5689V11.3636H74.6854ZM71.8018 19V10.3097C71.8018 9.87216 71.9046 9.50758 72.1101 9.21591C72.3156 8.92424 72.5824 8.70549 72.9105 8.55966C73.2386 8.41383 73.585 8.34091 73.9496 8.34091C74.2379 8.34091 74.4732 8.36411 74.6555 8.41051C74.8378 8.45691 74.9737 8.5 75.0632 8.53977L74.7251 9.55398C74.6655 9.53409 74.5826 9.50923 74.4766 9.4794C74.3738 9.44957 74.2379 9.43466 74.0689 9.43466C73.6811 9.43466 73.401 9.53243 73.2287 9.72798C73.0597 9.92353 72.9751 10.2102 72.9751 10.5881V19H71.8018ZM78.3581 19.179C77.8742 19.179 77.4351 19.0878 77.0407 18.9055C76.6462 18.7199 76.333 18.4531 76.101 18.1051C75.869 17.7538 75.753 17.3295 75.753 16.8324C75.753 16.3949 75.8392 16.0402 76.0115 15.7685C76.1839 15.4934 76.4142 15.2779 76.7026 15.1222C76.9909 14.9664 77.3091 14.8504 77.6571 14.7741C78.0085 14.6946 78.3614 14.6316 78.7161 14.5852C79.1801 14.5256 79.5563 14.4808 79.8446 14.451C80.1363 14.4179 80.3484 14.3632 80.481 14.2869C80.6169 14.2107 80.6848 14.0781 80.6848 13.8892V13.8494C80.6848 13.3589 80.5506 12.9777 80.2821 12.706C80.017 12.4342 79.6143 12.2983 79.074 12.2983C78.5139 12.2983 78.0748 12.4209 77.7566 12.6662C77.4384 12.9115 77.2147 13.1733 77.0854 13.4517L75.9718 13.054C76.1706 12.59 76.4358 12.2287 76.7672 11.9702C77.102 11.7083 77.4666 11.526 77.861 11.4233C78.2587 11.3172 78.6498 11.2642 79.0343 11.2642C79.2795 11.2642 79.5613 11.294 79.8794 11.3537C80.2009 11.41 80.5108 11.5277 80.8091 11.7067C81.1107 11.8857 81.361 12.1558 81.5598 12.517C81.7587 12.8783 81.8581 13.3622 81.8581 13.9688V19H80.6848V17.9659H80.6252C80.5456 18.1316 80.4131 18.3089 80.2275 18.4979C80.0418 18.6868 79.7949 18.8475 79.4867 18.9801C79.1784 19.1127 78.8023 19.179 78.3581 19.179ZM78.5371 18.125C79.0011 18.125 79.3922 18.0339 79.7104 17.8516C80.0319 17.6693 80.2739 17.4339 80.4363 17.1456C80.602 16.8572 80.6848 16.554 80.6848 16.2358V15.1619C80.6351 15.2216 80.5257 15.2763 80.3567 15.326C80.191 15.3724 79.9988 15.4138 79.78 15.4503C79.5646 15.4834 79.3541 15.5133 79.1486 15.5398C78.9464 15.563 78.7824 15.5829 78.6564 15.5994C78.3515 15.6392 78.0665 15.7038 77.8013 15.7933C77.5395 15.8795 77.3274 16.0104 77.165 16.1861C77.0059 16.3584 76.9263 16.5937 76.9263 16.892C76.9263 17.2997 77.0771 17.608 77.3787 17.8168C77.6837 18.0223 78.0698 18.125 78.5371 18.125ZM88.8121 15.8778V11.3636H89.9854V19H88.8121V17.7074H88.7326C88.5536 18.0952 88.2752 18.425 87.8974 18.6967C87.5195 18.9652 87.0423 19.0994 86.4656 19.0994C85.9883 19.0994 85.564 18.995 85.1928 18.7862C84.8216 18.5741 84.5299 18.2559 84.3178 17.8317C84.1057 17.4041 83.9996 16.8655 83.9996 16.2159V11.3636H85.1729V16.1364C85.1729 16.6932 85.3287 17.1373 85.6403 17.4688C85.9551 17.8002 86.3562 17.9659 86.8434 17.9659C87.1351 17.9659 87.4317 17.8913 87.7333 17.7422C88.0382 17.593 88.2934 17.3643 88.4989 17.0561C88.7077 16.7479 88.8121 16.3551 88.8121 15.8778ZM93.3077 8.81818V19H92.1344V8.81818H93.3077ZM98.7777 11.3636V12.358H94.8203V11.3636H98.7777ZM95.9737 9.53409H97.147V16.8125C97.147 17.1439 97.1951 17.3925 97.2912 17.5582C97.3906 17.7206 97.5166 17.83 97.669 17.8864C97.8248 17.9394 97.9889 17.9659 98.1612 17.9659C98.2905 17.9659 98.3965 17.9593 98.4794 17.946C98.5623 17.9295 98.6286 17.9162 98.6783 17.9062L98.9169 18.9602C98.8374 18.9901 98.7263 19.0199 98.5838 19.0497C98.4413 19.0829 98.2607 19.0994 98.0419 19.0994C97.7105 19.0994 97.3857 19.0282 97.0675 18.8857C96.7526 18.7431 96.4908 18.526 96.282 18.2344C96.0765 17.9427 95.9737 17.5748 95.9737 17.1307V9.53409Z" fill="#1C1C1C"/>
</svg>
